<svg width="50" height="50" viewBox="0 0 50 50" fill="none" xmlns="http://www.w3.org/2000/svg">
<path d="M39.5833 37.5H33.0042H25C23.8521 37.5 22.9167 36.5646 22.9167 35.4167C22.9167 34.2688 23.8521 33.3333 25 33.3333H37.1417L43.75 26.7542V20.8333L35.4167 29.1667H25C21.5479 29.1667 18.75 31.9646 18.75 35.4167C18.75 38.8688 21.5479 41.6667 25 41.6667H43.75V37.5H39.5833Z" fill="#3498DB"/>
<path d="M39.9416 12.5L27.4416 25H33.3333L45.8333 12.5L37.5 4.16666L4.16663 37.5V45.8333H12.5L16.6916 41.6417C15.8062 40.4625 15.1458 39.1083 14.825 37.6167L10.775 41.6667H8.33329V39.225L15.0437 32.5146C16.0354 29.1104 18.6937 26.4521 22.0979 25.4604L37.5 10.0583L39.9416 12.5Z" fill="#3498DB"/>
<path d="M8.58534 20.8333C8.46451 20.8333 8.40409 20.7604 8.38951 20.7458C8.36659 20.6792 8.39159 20.4188 8.58534 20.225L15.0895 13.7208C15.5895 13.2208 16.1958 12.8625 16.8562 12.6688L24.2791 12.5L28.4458 8.33334H18.0353C15.8249 8.33334 13.7062 9.21043 12.1416 10.775L5.63951 17.2771C4.00409 18.9125 3.69159 21.5771 5.15618 23.3667C6.04576 24.4563 7.31659 25 8.58534 25C9.71659 25 10.8478 24.5688 11.7103 23.7063L12.4999 22.9167V20.8333C12.4999 20.8333 8.69159 20.8333 8.58534 20.8333Z" fill="#3498DB"/>
<g opacity="0.3">
<path opacity="0.3" d="M14.5834 35.4167C14.5834 29.6646 19.248 25 25.0001 25C26.7063 25 31.2501 25 31.2501 25L42.5292 13.3625L36.6376 7.47083L5.38757 38.7208L6.25007 43.75L11.2792 44.6125L15.7605 40.1312C15.0334 38.7104 14.5834 37.1229 14.5834 35.4167Z" fill="#3498DB"/>
</g>
</svg>
