<svg width="50" height="50" viewBox="0 0 50 50" fill="none" xmlns="http://www.w3.org/2000/svg">
<path opacity="0.13" d="M39.5832 20.8333C37.4999 16.6667 35.4166 14.5833 35.4166 14.5833L34.5041 14.4312C36.8187 14.1229 39.2791 13.2479 41.6666 11.3542C31.9312 4.13333 23.5374 12.1229 23.5374 12.1229C23.5374 12.1229 24.0437 12.4333 24.8957 12.8292L22.9166 12.5C22.9166 12.5 12.4999 10.4167 8.33325 22.9167C13.4749 22.9167 16.8333 21.1479 19.0312 19.0729C18.9041 19.6333 18.7937 20.2083 18.7499 20.8333C18.5874 23.1812 18.9208 25.9792 20.8333 29.1667C23.727 26.2729 24.9999 22.5 24.9999 19.9437C24.9999 17.8833 24.7728 16.3812 24.4687 15.2833C26.4145 17.7062 30.6457 20.8333 39.5832 20.8333Z" fill="#3498DB"/>
<path d="M41.4479 19.9021C40.5083 18.025 39.5729 16.5583 38.7875 15.4583C40.175 14.8833 41.5771 14.0854 42.9604 12.9896L45.0875 11.3021L42.9062 9.68331C34.35 3.33956 25.975 7.1854 22.4312 10.325C17.9312 9.83331 9.86665 11.7312 6.35623 22.2604L5.44165 25H8.33332C11.6937 25 14.4437 24.2833 16.6875 23.1812C16.8937 25.6229 17.6729 27.95 19.0479 30.2396L20.4187 32.5271L22.3062 30.6396C24.4333 28.5146 25.7208 26.0583 26.4167 23.8437C27.9125 28.5271 29.1667 35.0187 29.1667 43.75H33.3333C33.3333 33.8792 31.8167 26.6208 30.0354 21.4604C32.5125 22.3375 35.6354 22.9166 39.5833 22.9166H42.9542L41.4479 19.9021ZM37.6521 11.4C33.9396 13.0937 30.2833 12.55 27.7937 11.7479C30.1062 10.5916 33.6396 9.64165 37.6521 11.4ZM19.9583 14.5208C18.8417 16.6729 16.4625 19.6041 11.6167 20.5354C14.0708 16.0521 17.5854 14.8062 19.9583 14.5208ZM21.2979 25.1896C20.8771 23.8312 20.7271 22.45 20.8292 20.9771C20.85 20.6771 20.9229 20.3854 20.9708 20.0875C21.6812 19.3604 22.2937 18.6021 22.8062 17.8396C22.8687 18.4521 22.9167 19.125 22.9167 19.9437C22.9167 21.3687 22.4042 23.3166 21.2979 25.1896ZM28.7937 16.3021C29.9417 16.5354 31.1937 16.6937 32.525 16.6937C33.1354 16.6937 33.7625 16.65 34.4 16.5791C34.7458 16.9896 35.2479 17.6271 35.8562 18.5396C32.675 18.1521 30.4146 17.2833 28.7937 16.3021Z" fill="#3498DB"/>
<path d="M25 43.75C26.1506 43.75 27.0833 42.8172 27.0833 41.6666C27.0833 40.5161 26.1506 39.5833 25 39.5833C23.8494 39.5833 22.9166 40.5161 22.9166 41.6666C22.9166 42.8172 23.8494 43.75 25 43.75Z" fill="#3498DB"/>
<path d="M18.75 43.75C19.9006 43.75 20.8333 42.8172 20.8333 41.6666C20.8333 40.5161 19.9006 39.5833 18.75 39.5833C17.5994 39.5833 16.6666 40.5161 16.6666 41.6666C16.6666 42.8172 17.5994 43.75 18.75 43.75Z" fill="#3498DB"/>
<path d="M12.5 43.75C13.6506 43.75 14.5833 42.8172 14.5833 41.6666C14.5833 40.5161 13.6506 39.5833 12.5 39.5833C11.3494 39.5833 10.4166 40.5161 10.4166 41.6666C10.4166 42.8172 11.3494 43.75 12.5 43.75Z" fill="#3498DB"/>
<path d="M37.5 43.75C38.6506 43.75 39.5833 42.8172 39.5833 41.6666C39.5833 40.5161 38.6506 39.5833 37.5 39.5833C36.3494 39.5833 35.4166 40.5161 35.4166 41.6666C35.4166 42.8172 36.3494 43.75 37.5 43.75Z" fill="#3498DB"/>
<path d="M43.75 43.75C44.9006 43.75 45.8333 42.8172 45.8333 41.6666C45.8333 40.5161 44.9006 39.5833 43.75 39.5833C42.5994 39.5833 41.6666 40.5161 41.6666 41.6666C41.6666 42.8172 42.5994 43.75 43.75 43.75Z" fill="#3498DB"/>
<path d="M6.24996 43.75C7.40055 43.75 8.33329 42.8172 8.33329 41.6666C8.33329 40.5161 7.40055 39.5833 6.24996 39.5833C5.09937 39.5833 4.16663 40.5161 4.16663 41.6666C4.16663 42.8172 5.09937 43.75 6.24996 43.75Z" fill="#3498DB"/>
</svg>
