<svg width="50" height="50" viewBox="0 0 50 50" fill="none" xmlns="http://www.w3.org/2000/svg">
<g opacity="0.3">
<path opacity="0.3" d="M41.6667 25V10.4167H8.33333V25H6.25V39.5833H43.75V25H41.6667Z" fill="#3498DB"/>
</g>
<path d="M4.16663 27.0833V45.8333H8.33329V41.6667H41.6666V45.8333H45.8333V27.0833C45.8333 24.7812 43.9687 22.9167 41.6666 22.9167H8.33329C6.03121 22.9167 4.16663 24.7812 4.16663 27.0833ZM41.6666 37.5H8.33329V27.0833H41.6666V37.5Z" fill="#3498DB"/>
<path d="M22.9167 25H12.5V18.75C12.5 17.6 13.4333 16.6667 14.5833 16.6667H20.8333C21.9833 16.6667 22.9167 17.6 22.9167 18.75V25Z" fill="#3498DB"/>
<path d="M37.5 25H27.0834V18.75C27.0834 17.6 28.0167 16.6667 29.1667 16.6667H35.4167C36.5667 16.6667 37.5 17.6 37.5 18.75V25Z" fill="#3498DB"/>
<path d="M10.4167 25V12.5H39.5833V25H43.75V12.5C43.75 10.1979 41.8854 8.33334 39.5833 8.33334H10.4167C8.11458 8.33334 6.25 10.1979 6.25 12.5V25H10.4167Z" fill="#3498DB"/>
</svg>
