<svg width="40" height="40" viewBox="0 0 40 40" fill="none" xmlns="http://www.w3.org/2000/svg">
<path d="M32.8 3.19995H7.20001C4.99201 3.19995 3.20001 4.99195 3.20001 7.19995V32.7999C3.20001 35.0079 4.99201 36.7999 7.20001 36.7999H32.8C35.008 36.7999 36.8 35.0079 36.8 32.7999V7.19995C36.8 4.99195 35.008 3.19995 32.8 3.19995ZM29.6 15.2H28C26.288 15.2 25.6 15.6 25.6 16.8V19.2H29.6L28.8 23.1999H25.6V35.1999H21.6V23.1999H18.4V19.2H21.6V16.8C21.6 13.6 23.2 11.2 26.4 11.2C28.72 11.2 29.6 12 29.6 12V15.2Z" fill="white"/>
</svg>
