<svg width="40" height="40" viewBox="0 0 40 40" fill="none" xmlns="http://www.w3.org/2000/svg">
<path d="M12.8 2.40002C7.06402 2.40002 2.40002 7.06402 2.40002 12.8V27.2C2.40002 32.936 7.06402 37.6 12.8 37.6H27.2C32.936 37.6 37.6 32.936 37.6 27.2V12.8C37.6 7.06402 32.936 2.40002 27.2 2.40002H12.8ZM29.6 8.80002C30.48 8.80002 31.2 9.52002 31.2 10.4C31.2 11.28 30.48 12 29.6 12C28.72 12 28 11.28 28 10.4C28 9.52002 28.72 8.80002 29.6 8.80002ZM20 11.2C24.856 11.2 28.8 15.144 28.8 20C28.8 24.856 24.856 28.8 20 28.8C15.144 28.8 11.2 24.856 11.2 20C11.2 15.144 15.144 11.2 20 11.2ZM20 12.8C16.032 12.8 12.8 16.032 12.8 20C12.8 23.968 16.032 27.2 20 27.2C23.968 27.2 27.2 23.968 27.2 20C27.2 16.032 23.968 12.8 20 12.8Z" fill="white"/>
</svg>
