<svg width="40" height="40" viewBox="0 0 40 40" fill="none" xmlns="http://www.w3.org/2000/svg">
<path d="M32.8 3.19995H7.20001C4.99201 3.19995 3.20001 4.99195 3.20001 7.19995V32.7999C3.20001 35.0079 4.99201 36.7999 7.20001 36.7999H32.8C35.008 36.7999 36.8 35.0079 36.8 32.7999V7.19995C36.8 4.99195 35.008 3.19995 32.8 3.19995ZM30.176 26.3999L27.192 26.392C27.192 26.392 27.128 26.3999 27.024 26.3999C26.784 26.3999 26.288 26.3359 25.704 25.9359C24.656 25.2079 23.656 23.3999 22.864 23.3999C22.808 23.3999 22.76 23.408 22.712 23.424C22.024 23.64 21.816 24.3279 21.816 25.1679C21.816 25.4639 21.608 25.5999 21.048 25.5999H19.504C17.776 25.5999 16.104 25.5599 14.224 23.5039C11.456 20.4719 8.86401 15.08 8.86401 15.08C8.86401 15.08 8.72001 14.768 8.87201 14.584C9.01601 14.416 9.35201 14.4 9.48001 14.4C9.51201 14.4 9.52801 14.4 9.52801 14.4H12.728C12.728 14.4 13.024 14.456 13.24 14.616C13.424 14.752 13.52 15 13.52 15C13.52 15 14.064 16.0559 14.744 17.2479C15.888 19.2159 16.504 19.872 16.944 19.872C17.016 19.872 17.088 19.856 17.16 19.816C17.816 19.456 17.624 16.544 17.624 16.544C17.624 16.544 17.632 15.488 17.288 15.024C17.024 14.656 16.52 14.552 16.296 14.52C16.12 14.496 16.408 14.08 16.792 13.888C17.288 13.648 18.112 13.6 19.104 13.6H19.584C20.52 13.616 20.544 13.712 20.912 13.8C22.016 14.064 21.64 15.0959 21.64 17.5679C21.64 18.3599 21.496 19.4719 22.064 19.8479C22.104 19.8719 22.16 19.888 22.232 19.888C22.6 19.888 23.392 19.416 24.656 17.28C25.36 16.064 25.904 14.856 25.904 14.856C25.904 14.856 26.024 14.64 26.208 14.528C26.384 14.424 26.384 14.424 26.616 14.424H26.64C26.896 14.424 29.44 14.4 30 14.4H30.064C30.6 14.4 31.088 14.408 31.176 14.736C31.304 15.232 30.784 16.12 29.416 17.96C27.16 20.976 26.904 20.752 28.776 22.496C30.568 24.16 30.936 24.968 31 25.0719C31.744 26.3039 30.176 26.3999 30.176 26.3999Z" fill="white"/>
</svg>
