<svg width="40" height="40" viewBox="0 0 40 40" fill="none" xmlns="http://www.w3.org/2000/svg">
<g clip-path="url(#clip0)">
<path d="M40.05 8.35002C38.5719 9.00627 36.9875 9.4469 35.3219 9.6469C37.0219 8.62815 38.3281 7.01565 38.9406 5.0969C37.3531 6.03752 35.5875 6.7219 33.7156 7.09065C32.2156 5.49065 30.0781 4.49377 27.7125 4.49377C23.1688 4.49377 19.4844 8.17502 19.4844 12.7188C19.4844 13.3625 19.5594 13.9906 19.7 14.5938C12.8625 14.25 6.80313 10.975 2.74375 5.9969C2.03438 7.21565 1.63125 8.62815 1.63125 10.1344C1.63125 12.9875 3.08125 15.5063 5.29063 16.9844C3.94062 16.9406 2.67188 16.5688 1.5625 15.9531C1.5625 15.9875 1.5625 16.0219 1.5625 16.0563C1.5625 20.0438 4.4 23.3656 8.15938 24.125C7.47188 24.3125 6.74375 24.4125 5.99375 24.4125C5.4625 24.4125 4.94688 24.3625 4.44375 24.2625C5.49375 27.5281 8.53125 29.9125 12.1281 29.9781C9.31563 32.1844 5.76875 33.4969 1.9125 33.4969C1.24688 33.4969 0.59375 33.4594 -0.046875 33.3813C3.59063 35.7188 7.91563 37.0781 12.5625 37.0781C27.6938 37.0781 35.9688 24.5438 35.9688 13.675C35.9688 13.3188 35.9594 12.9594 35.9469 12.6094C37.5531 11.45 38.9469 10 40.05 8.35002Z" fill="white"/>
</g>
<defs>
<clipPath id="clip0">
<rect width="40" height="40" fill="white"/>
</clipPath>
</defs>
</svg>
