<svg width="46" height="50" viewBox="0 0 46 50" fill="none" xmlns="http://www.w3.org/2000/svg">
<g opacity="0.3">
<path opacity="0.3" d="M21.0834 31.25C24.259 31.25 26.8334 28.4518 26.8334 25C26.8334 21.5482 24.259 18.75 21.0834 18.75C17.9077 18.75 15.3334 21.5482 15.3334 25C15.3334 28.4518 17.9077 31.25 21.0834 31.25Z" fill="#3498DB"/>
</g>
<path d="M21.0834 31.25C24.259 31.25 26.8334 28.4518 26.8334 25C26.8334 21.5482 24.259 18.75 21.0834 18.75C17.9077 18.75 15.3334 21.5482 15.3334 25C15.3334 28.4518 17.9077 31.25 21.0834 31.25Z" stroke="#3498DB" stroke-width="2" stroke-miterlimit="10"/>
<path d="M29.7083 14.5833C32.3547 14.5833 34.5 12.2515 34.5 9.37499C34.5 6.49851 32.3547 4.16666 29.7083 4.16666C27.0619 4.16666 24.9166 6.49851 24.9166 9.37499C24.9166 12.2515 27.0619 14.5833 29.7083 14.5833Z" fill="#3498DB"/>
<path d="M37.375 29.1667C40.0214 29.1667 42.1667 26.8348 42.1667 23.9583C42.1667 21.0819 40.0214 18.75 37.375 18.75C34.7287 18.75 32.5834 21.0819 32.5834 23.9583C32.5834 26.8348 34.7287 29.1667 37.375 29.1667Z" fill="#3498DB"/>
<path d="M31.625 45.8333C34.2714 45.8333 36.4167 43.5015 36.4167 40.625C36.4167 37.7485 34.2714 35.4167 31.625 35.4167C28.9787 35.4167 26.8334 37.7485 26.8334 40.625C26.8334 43.5015 28.9787 45.8333 31.625 45.8333Z" fill="#3498DB"/>
<path d="M10.5417 16.6667C13.188 16.6667 15.3333 14.3348 15.3333 11.4583C15.3333 8.58185 13.188 6.25 10.5417 6.25C7.8953 6.25 5.75 8.58185 5.75 11.4583C5.75 14.3348 7.8953 16.6667 10.5417 16.6667Z" fill="#3498DB"/>
<path d="M10.5417 43.75C13.188 43.75 15.3333 41.4182 15.3333 38.5417C15.3333 35.6652 13.188 33.3333 10.5417 33.3333C7.8953 33.3333 5.75 35.6652 5.75 38.5417C5.75 41.4182 7.8953 43.75 10.5417 43.75Z" fill="#3498DB"/>
<path d="M24.1519 19.4438L29.7083 9.38126" stroke="#3498DB" stroke-width="2" stroke-miterlimit="10"/>
<path d="M27.0575 24.6188L37.3749 23.9583" stroke="#3498DB" stroke-width="2" stroke-miterlimit="10"/>
<path d="M24.6904 30.3458L31.6249 40.625" stroke="#3498DB" stroke-width="2" stroke-miterlimit="10"/>
<path d="M17.296 20.1354L10.5416 11.4625" stroke="#3498DB" stroke-width="2" stroke-miterlimit="10"/>
<path d="M17.2518 29.9979L10.5454 38.5417" stroke="#3498DB" stroke-width="2" stroke-miterlimit="10"/>
</svg>
