<svg width="56" height="56" viewBox="0 0 56 56" fill="none" xmlns="http://www.w3.org/2000/svg">
<g opacity="0.3">
<path opacity="0.3" d="M28 35C34.2743 35 40.0167 37.2587 44.4757 40.9967C47.3013 37.4197 49 32.9117 49 28C49 16.401 39.599 7 28 7C16.401 7 7 16.401 7 28C7 32.9117 8.69867 37.4197 11.5243 40.9967C15.9833 37.2587 21.7257 35 28 35ZM28 16.3333C30.5783 16.3333 32.6667 18.4217 32.6667 21C32.6667 23.5783 30.5783 25.6667 28 25.6667C25.4217 25.6667 23.3333 23.5783 23.3333 21C23.3333 18.4217 25.4217 16.3333 28 16.3333Z" fill="#3498DB"/>
</g>
<path d="M28.0001 28.5833C32.1814 28.5833 35.5834 25.1813 35.5834 21C35.5834 16.8187 32.1814 13.4167 28.0001 13.4167C23.8187 13.4167 20.4167 16.8187 20.4167 21C20.4167 25.1813 23.8187 28.5833 28.0001 28.5833ZM28.0001 18.0833C29.6077 18.0833 30.9167 19.3923 30.9167 21C30.9167 22.6077 29.6077 23.9167 28.0001 23.9167C26.3924 23.9167 25.0834 22.6077 25.0834 21C25.0834 19.3923 26.3924 18.0833 28.0001 18.0833Z" fill="#3498DB"/>
<path d="M28.0001 4.66666C15.1131 4.66666 4.66675 15.113 4.66675 28C4.66675 40.887 15.1131 51.3333 28.0001 51.3333C40.8871 51.3333 51.3334 40.887 51.3334 28C51.3334 15.113 40.8871 4.66666 28.0001 4.66666ZM28.0001 46.6667C17.6914 46.6667 9.33342 38.3087 9.33342 28C9.33342 17.6913 17.6914 9.33332 28.0001 9.33332C38.3088 9.33332 46.6668 17.6913 46.6668 28C46.6668 38.3087 38.3088 46.6667 28.0001 46.6667Z" fill="#3498DB"/>
<path d="M15.0476 41.4283C16.8676 40.0633 20.7596 37.3333 27.9999 37.3333C35.2402 37.3333 39.1322 40.0633 40.9522 41.4283C41.3979 40.999 41.8296 40.551 42.2356 40.075L43.8176 38.2107L41.8832 36.715C38.2619 33.922 31.5862 32.6667 27.9999 32.6667C24.4136 32.6667 17.7379 33.922 14.1189 36.715L12.1846 38.2107L13.7666 40.075C14.1702 40.551 14.6019 40.999 15.0476 41.4283Z" fill="#3498DB"/>
</svg>
